<svg xmlns="http://www.w3.org/2000/svg" width="360" height="360" viewBox="0 0 360 360" version="1.1">
	<path d="M 114.461 120.500 C 114.461 145.800, 114.591 156.007, 114.749 143.181 C 114.908 130.356, 114.907 109.656, 114.749 97.181 C 114.590 84.707, 114.461 95.200, 114.461 120.500 M 179.507 84.989 C 179.157 85.555, 179.558 85.723, 180.448 85.382 C 182.180 84.717, 182.497 84, 181.059 84 C 180.541 84, 179.843 84.445, 179.507 84.989 M 162.014 92.414 C 162.662 93.062, 163.338 93.062, 163.986 92.414 C 164.633 91.767, 164.295 91.429, 163 91.429 C 161.705 91.429, 161.367 91.767, 162.014 92.414 M 154.872 94.750 C 153.629 96.336, 153.664 96.371, 155.250 95.128 C 156.213 94.373, 157 93.585, 157 93.378 C 157 92.555, 156.179 93.084, 154.872 94.750 M 148.813 99.683 C 149.534 99.972, 150.397 99.936, 150.729 99.604 C 151.061 99.272, 150.471 99.036, 149.417 99.079 C 148.252 99.127, 148.015 99.364, 148.813 99.683 M 150 107 C 149.099 107.582, 148.975 107.975, 149.691 107.985 C 150.346 107.993, 151.160 107.550, 151.500 107 C 152.267 105.758, 151.921 105.758, 150 107 M 160.813 106.683 C 161.534 106.972, 162.397 106.936, 162.729 106.604 C 163.061 106.272, 162.471 106.036, 161.417 106.079 C 160.252 106.127, 160.015 106.364, 160.813 106.683 M 189 107 C 188.099 107.582, 187.975 107.975, 188.691 107.985 C 189.346 107.993, 190.160 107.550, 190.500 107 C 191.267 105.758, 190.921 105.758, 189 107 M 155 108.059 C 155 108.641, 155.450 108.840, 156 108.500 C 156.550 108.160, 157 107.684, 157 107.441 C 157 107.198, 156.550 107, 156 107 C 155.450 107, 155 107.477, 155 108.059 M 150 111.383 C 150 111.594, 150.901 112.002, 152.001 112.290 C 153.102 112.578, 153.751 112.405, 153.442 111.907 C 152.904 111.036, 150 110.594, 150 111.383 M 207.603 117.833 C 207.320 118.292, 207.723 118.667, 208.500 118.667 C 209.277 118.667, 209.680 118.292, 209.397 117.833 C 209.114 117.375, 208.710 117, 208.500 117 C 208.290 117, 207.886 117.375, 207.603 117.833 M 187 135.500 C 188.292 136.875, 189.574 138, 189.849 138 C 190.124 138, 189.292 136.875, 188 135.500 C 186.708 134.125, 185.426 133, 185.151 133 C 184.876 133, 185.708 134.125, 187 135.500 M 129.269 152.693 C 130.242 152.947, 131.592 152.930, 132.269 152.656 C 132.946 152.382, 132.150 152.175, 130.500 152.195 C 128.850 152.215, 128.296 152.439, 129.269 152.693 M 117.998 163.250 C 117.999 163.662, 127.563 163.911, 139.250 163.801 C 160.750 163.600, 158.266 163.230, 132.248 162.758 C 124.410 162.616, 117.997 162.838, 117.998 163.250 M 179.397 163.167 C 179.114 163.625, 179.809 164, 180.941 164 C 182.073 164, 183 163.625, 183 163.167 C 183 162.708, 182.305 162.333, 181.456 162.333 C 180.607 162.333, 179.680 162.708, 179.397 163.167 M 162.250 163.689 C 163.213 163.941, 164.787 163.941, 165.750 163.689 C 166.713 163.438, 165.925 163.232, 164 163.232 C 162.075 163.232, 161.287 163.438, 162.250 163.689 M 168.750 163.662 C 169.438 163.940, 170.563 163.940, 171.250 163.662 C 171.938 163.385, 171.375 163.158, 170 163.158 C 168.625 163.158, 168.063 163.385, 168.750 163.662 M 193.813 163.683 C 194.534 163.972, 195.397 163.936, 195.729 163.604 C 196.061 163.272, 195.471 163.036, 194.417 163.079 C 193.252 163.127, 193.015 163.364, 193.813 163.683 M 159.872 181.750 C 158.629 183.336, 158.664 183.371, 160.250 182.128 C 161.916 180.821, 162.445 180, 161.622 180 C 161.415 180, 160.627 180.787, 159.872 181.750 M 161.872 185.750 C 160.629 187.336, 160.664 187.371, 162.250 186.128 C 163.916 184.821, 164.445 184, 163.622 184 C 163.415 184, 162.627 184.787, 161.872 185.750 M 205 185.378 C 205 185.585, 205.787 186.373, 206.750 187.128 C 208.336 188.371, 208.371 188.336, 207.128 186.750 C 205.821 185.084, 205 184.555, 205 185.378 M 153.872 188.750 C 152.629 190.336, 152.664 190.371, 154.250 189.128 C 155.916 187.821, 156.445 187, 155.622 187 C 155.415 187, 154.627 187.787, 153.872 188.750 M 156.655 191.829 C 154.708 193.980, 154.551 195, 156.167 195 C 156.808 195, 157.032 194.699, 156.664 194.331 C 156.297 193.963, 156.741 192.838, 157.653 191.831 C 158.564 190.824, 159.085 190, 158.810 190 C 158.535 190, 157.565 190.823, 156.655 191.829 M 2 192.845 C 2 193.310, 2.900 194.505, 4 195.500 C 5.100 196.495, 6 197.915, 6 198.655 C 6 199.395, 6.419 200, 6.930 200 C 7.442 200, 8.038 201.012, 8.255 202.250 C 8.615 204.310, 8.717 204.344, 9.470 202.649 C 9.950 201.567, 9.876 200.529, 9.290 200.149 C 8.739 199.792, 7.978 197.813, 7.599 195.750 C 7.024 192.622, 6.502 192, 4.455 192 C 3.105 192, 2 192.380, 2 192.845 M 0 198 C 0 199.100, 0.450 200, 1 200 C 1.550 200, 2 199.100, 2 198 C 2 196.900, 1.550 196, 1 196 C 0.450 196, 0 196.900, 0 198 M 8.756 205.612 C 9.447 205.919, 9.758 206.582, 9.447 207.085 C 9.136 207.588, 9.846 208, 11.024 208 C 13.971 208, 12.983 205.559, 9.922 205.276 C 8.590 205.153, 8.065 205.304, 8.756 205.612 M 0.032 208.750 C 0.049 209.162, 0.724 210.374, 1.532 211.441 C 3.423 213.941, 3.408 216, 1.500 216 C 0.181 216, 0 224.667, 0 288 L 0 360 53.969 360 C 96.753 360, 107.830 359.741, 107.419 358.750 C 106.691 356.996, 99.293 352, 97.424 352 C 96.547 352, 95.952 351.240, 96.052 350.250 C 96.389 346.941, 95.996 346, 94.250 345.930 C 92.754 345.870, 92.790 345.735, 94.500 345 C 96.049 344.334, 95.542 344.125, 92.250 344.070 C 88.478 344.008, 88 343.736, 88 341.655 C 88 338.798, 85.116 336, 82.171 336 C 80.630 336, 80 335.389, 80 333.893 C 80 332.417, 80.456 331.961, 81.523 332.371 C 82.791 332.857, 82.857 332.601, 81.916 330.842 C 81.139 329.390, 80.557 329.100, 80.054 329.912 C 79.518 330.781, 78.982 330.684, 78.039 329.547 C 76.970 328.259, 77.027 328, 78.378 328 C 81.544 328, 79.939 325.300, 76 324 C 73.800 323.274, 72 322.270, 72 321.769 C 72 321.267, 71.361 320.218, 70.580 319.438 C 69.493 318.350, 69.051 318.309, 68.691 319.259 C 68.432 319.942, 68.240 319.017, 68.264 317.204 C 68.288 315.390, 67.722 313.365, 67.006 312.704 C 65.961 311.736, 65.845 311.892, 66.415 313.500 C 67.107 315.453, 67.078 315.452, 65.198 313.438 C 64.139 312.304, 62.485 309.716, 61.522 307.688 C 60.417 305.360, 59.077 304, 57.886 304 C 56.605 304, 55.991 303.278, 55.971 301.750 C 55.946 299.848, 50.950 293, 49.587 293 C 49.345 293, 48.941 293.788, 48.689 294.750 C 48.438 295.712, 48.180 294.418, 48.116 291.872 C 48.047 289.101, 47.398 286.745, 46.500 286 C 45.258 284.969, 44.997 285.077, 44.985 286.628 C 44.972 288.173, 44.807 288.243, 44.037 287.026 C 43.443 286.087, 43.482 285.320, 44.145 284.910 C 45.464 284.095, 43.057 280, 41.259 280 C 40.567 280, 40 279.311, 40 278.469 C 40 277.626, 39.287 276.664, 38.416 276.329 C 37.452 275.959, 37.239 275.470, 37.873 275.079 C 38.494 274.695, 37.678 273.114, 35.850 271.158 C 33.014 268.123, 30.436 267.352, 32.734 270.226 C 33.320 270.958, 33.410 272.350, 32.947 273.500 C 32.262 275.199, 32.130 275.236, 32.070 273.750 C 32.032 272.788, 31.212 271.964, 30.250 271.921 C 29.205 271.874, 29.003 271.639, 29.750 271.338 C 31.143 270.776, 31.465 266.406, 30.173 265.607 C 29.718 265.326, 29.685 262.712, 30.100 259.798 C 30.515 256.884, 30.819 252.925, 30.777 251 C 30.707 247.816, 30.636 247.906, 30 252 L 29.300 256.500 29.150 252.156 C 29.032 248.725, 28.580 247.703, 27 247.290 C 24.832 246.723, 24.399 245.490, 26.016 244.490 C 26.575 244.144, 26.803 243.490, 26.522 243.036 C 26.241 242.581, 26.640 241.969, 27.407 241.674 C 28.865 241.114, 28.994 242.619, 27.670 244.739 C 27.124 245.612, 27.402 245.783, 28.612 245.319 C 29.910 244.821, 30.119 245.006, 29.472 246.080 C 28.741 247.292, 28.864 247.299, 30.308 246.128 C 32.156 244.628, 32.597 242, 31 242 C 30.450 242, 30 241.153, 30 240.118 C 30 238.604, 30.768 238.225, 33.930 238.182 C 39.968 238.098, 40.475 239.352, 40.673 254.861 L 40.846 268.415 44.989 268.506 C 47.267 268.556, 49.358 268.230, 49.635 267.782 C 49.912 267.334, 50.445 267.157, 50.819 267.388 C 51.194 267.620, 51.440 264.021, 51.367 259.391 C 51.293 254.762, 51.631 250.728, 52.117 250.428 C 52.603 250.128, 53 249.207, 53 248.382 C 53 247.557, 52.550 247.160, 52 247.500 C 51.205 247.991, 50.487 242.862, 50.806 238.976 C 50.830 238.688, 49.981 237.338, 48.919 235.976 L 46.988 233.500 48.494 237.218 C 49.568 239.870, 50 244.673, 50 253.968 L 50 267 46 267 L 42 267 42 254.934 C 42 239.475, 40.895 237.045, 33.854 237.015 C 30.921 237.003, 29.599 237.692, 27.104 240.535 C 24.018 244.049, 24 244.137, 24 255.535 L 24 267 20 267 L 16 267 16 248.500 L 16 230 20 230 C 23.670 230, 24 230.221, 24 232.674 L 24 235.349 26.250 233.299 C 31.590 228.435, 37.336 227.688, 42.973 231.124 C 45.023 232.375, 45.938 232.630, 45.205 231.747 C 44.523 230.926, 44.241 229.409, 44.577 228.377 C 44.941 227.260, 44.847 226.945, 44.344 227.599 C 43.144 229.161, 39.801 228.962, 40.413 227.365 C 40.688 226.650, 40.413 225.755, 39.802 225.378 C 39.139 224.968, 38.972 225.145, 39.386 225.816 C 40.188 227.113, 35.704 228.553, 34.049 227.530 C 33.464 227.169, 32.277 227.580, 31.412 228.445 C 30.547 229.311, 29.425 229.763, 28.919 229.450 C 28.414 229.138, 28 229.385, 28 230 C 28 230.615, 27.480 230.797, 26.845 230.405 C 26.156 229.979, 25.961 230.129, 26.362 230.776 C 26.731 231.373, 26.575 232.144, 26.016 232.490 C 25.427 232.854, 25 232.019, 25 230.500 C 25 229.060, 25.399 228.129, 25.887 228.430 C 26.374 228.731, 27.387 228.222, 28.137 227.297 C 29.074 226.141, 29.110 225.851, 28.250 226.367 C 27.507 226.814, 26.987 226.587, 26.968 225.809 C 26.949 224.999, 26.379 225.237, 25.474 226.433 C 24.519 227.695, 22.596 228.445, 19.926 228.596 C 17.679 228.723, 15.606 229.061, 15.319 229.348 C 15.032 229.635, 14.449 232.261, 14.023 235.185 L 13.250 240.500 13.109 235 C 13.009 231.047, 12.697 229.922, 12 231 C 11.195 232.245, 11.023 232.160, 10.984 230.500 C 10.937 228.527, 10.917 228.526, 9.468 230.441 C 8.029 232.343, 8 232.340, 8 230.250 C 8 229.077, 8.450 227.840, 9 227.500 C 9.550 227.160, 9.968 226.121, 9.930 225.191 C 9.872 223.812, 9.701 223.870, 9 225.500 C 8.410 226.873, 8.104 227.030, 8.025 226 C 7.962 225.175, 7.260 223.150, 6.465 221.500 C 5.226 218.928, 5.099 218.857, 5.575 221 C 6 222.912, 5.890 223.149, 5.107 222.008 C 4.544 221.188, 4.348 219.460, 4.672 218.169 C 5.430 215.150, 3.087 208, 1.340 208 C 0.603 208, 0.014 208.338, 0.032 208.750 M 101.892 216.739 C 104.809 216.998, 106.928 217.863, 108.201 219.314 C 110.118 221.499, 110.118 221.499, 108.444 218.750 C 106.972 216.333, 106.209 216.021, 102.135 216.175 L 97.500 216.349 101.892 216.739 M 241.228 238.250 C 241.017 257.437, 241.132 258.999, 242.750 258.985 C 243.973 258.974, 244.130 258.734, 243.272 258.189 C 242.385 257.626, 241.962 251.865, 241.749 237.454 L 241.455 217.500 241.228 238.250 M 97.333 220.364 C 97.333 221.113, 98.180 222.256, 99.215 222.902 C 101.021 224.030, 101.030 223.975, 99.433 221.539 C 97.516 218.612, 97.333 218.510, 97.333 220.364 M 110.637 221.778 C 110.373 222.206, 111.051 223.668, 112.145 225.028 L 114.134 227.500 112.855 225 C 112.151 223.625, 111.671 222.162, 111.788 221.750 C 112.067 220.764, 111.251 220.784, 110.637 221.778 M 11.500 225 C 11.840 225.550, 12.316 226, 12.559 226 C 12.802 226, 13 225.550, 13 225 C 13 224.450, 12.523 224, 11.941 224 C 11.359 224, 11.160 224.450, 11.500 225 M 15 225.059 C 15 225.641, 15.450 225.840, 16 225.500 C 16.550 225.160, 17 224.684, 17 224.441 C 17 224.198, 16.550 224, 16 224 C 15.450 224, 15 224.477, 15 225.059 M 18.580 225.129 C 18.818 225.514, 18.447 226.057, 17.756 226.336 C 17.065 226.614, 16.976 226.878, 17.559 226.921 C 18.141 226.964, 19.409 226.421, 20.376 225.714 C 22.025 224.509, 22.010 224.429, 20.141 224.429 C 19.044 224.429, 18.342 224.744, 18.580 225.129 M 44 225 C 43.099 225.582, 42.975 225.975, 43.691 225.985 C 44.346 225.993, 45.160 225.550, 45.500 225 C 46.267 223.758, 45.921 223.758, 44 225 M 232.425 245 C 232.425 256.825, 232.569 261.663, 232.746 255.750 C 232.923 249.838, 232.923 240.162, 232.746 234.250 C 232.569 228.338, 232.425 233.175, 232.425 245 M 66.386 228.719 C 66.706 229.040, 66.188 229.934, 65.234 230.706 C 63.637 232, 63.658 232.038, 65.500 231.190 C 66.600 230.684, 68.163 230.063, 68.974 229.810 C 69.981 229.496, 69.712 229.158, 68.125 228.743 C 66.848 228.409, 66.065 228.398, 66.386 228.719 M 72.250 228.689 C 73.213 228.941, 74.787 228.941, 75.750 228.689 C 76.713 228.438, 75.925 228.232, 74 228.232 C 72.075 228.232, 71.287 228.438, 72.250 228.689 M 106 232.500 C 107.703 234.975, 109.321 237, 109.596 237 C 109.871 237, 108.703 234.975, 107 232.500 C 105.297 230.025, 103.679 228, 103.404 228 C 103.129 228, 104.297 230.025, 106 232.500 M 116 231 C 117.175 232.650, 118.361 234, 118.636 234 C 118.911 234, 118.175 232.650, 117 231 C 115.825 229.350, 114.639 228, 114.364 228 C 114.089 228, 114.825 229.350, 116 231 M 161.269 228.693 C 162.242 228.947, 163.592 228.930, 164.269 228.656 C 164.946 228.382, 164.150 228.175, 162.500 228.195 C 160.850 228.215, 160.296 228.439, 161.269 228.693 M 78 229.383 C 78 229.594, 78.901 230.002, 80.001 230.290 C 81.102 230.578, 81.751 230.405, 81.442 229.907 C 80.904 229.036, 78 228.594, 78 229.383 M 186.750 229.662 C 187.438 229.940, 188.563 229.940, 189.250 229.662 C 189.938 229.385, 189.375 229.158, 188 229.158 C 186.625 229.158, 186.063 229.385, 186.750 229.662 M 201.991 229.704 C 203.911 229.956, 205.858 230.689, 206.317 231.331 C 206.887 232.128, 207.024 232.023, 206.749 231 C 206.485 230.021, 204.984 229.456, 202.423 229.373 C 198.665 229.251, 198.647 229.265, 201.991 229.704 M 153.507 230.989 C 153.157 231.555, 153.558 231.723, 154.448 231.382 C 156.180 230.717, 156.497 230, 155.059 230 C 154.541 230, 153.843 230.445, 153.507 230.989 M 86.853 234.759 C 88.859 236.827, 90.694 238.395, 90.932 238.244 C 91.497 237.885, 84.820 231, 83.907 231 C 83.522 231, 84.847 232.692, 86.853 234.759 M 302.413 248.500 C 302.414 258.400, 302.564 262.315, 302.746 257.199 C 302.928 252.084, 302.927 243.984, 302.744 239.199 C 302.561 234.415, 302.412 238.600, 302.413 248.500 M 60.762 233.073 C 59.807 233.630, 58.511 235.079, 57.883 236.293 C 56.942 238.110, 57.293 237.982, 59.870 235.563 C 63.817 231.859, 64.073 231.145, 60.762 233.073 M 148.924 234.750 L 146.500 237.500 149.250 235.076 C 150.762 233.742, 152 232.505, 152 232.326 C 152 231.541, 151.190 232.180, 148.924 234.750 M 11.158 235 C 11.158 236.375, 11.385 236.938, 11.662 236.250 C 11.940 235.563, 11.940 234.438, 11.662 233.750 C 11.385 233.063, 11.158 233.625, 11.158 235 M 206.079 234.583 C 206.127 235.748, 206.364 235.985, 206.683 235.188 C 206.972 234.466, 206.936 233.603, 206.604 233.271 C 206.272 232.939, 206.036 233.529, 206.079 234.583 M 176 234.378 C 176 234.585, 176.787 235.373, 177.750 236.128 C 179.336 237.371, 179.371 237.336, 178.128 235.750 C 176.821 234.084, 176 233.555, 176 234.378 M 266.872 236.750 C 265.629 238.336, 265.664 238.371, 267.250 237.128 C 268.212 236.373, 269 235.585, 269 235.378 C 269 234.555, 268.179 235.084, 266.872 236.750 M 71.323 236.696 C 70.125 236.929, 68.550 237.881, 67.823 238.810 C 66.668 240.285, 66.699 240.345, 68.066 239.280 C 68.928 238.609, 71.034 237.953, 72.747 237.822 C 74.460 237.692, 75.641 237.228, 75.372 236.793 C 75.102 236.357, 74.571 236.061, 74.191 236.136 C 73.811 236.211, 72.520 236.463, 71.323 236.696 M 78.211 238.399 C 78.920 239.169, 79.658 239.649, 79.850 239.466 C 80.443 238.902, 78.940 237, 77.902 237 C 77.362 237, 77.501 237.630, 78.211 238.399 M 155.405 240.250 L 153.500 242.500 155.750 240.595 C 157.864 238.805, 158.455 238, 157.655 238 C 157.465 238, 156.453 239.012, 155.405 240.250 M 289 238.378 C 289 238.585, 289.788 239.373, 290.750 240.128 C 292.336 241.371, 292.371 241.336, 291.128 239.750 C 289.821 238.084, 289 237.555, 289 238.378 M 53 240.437 C 53 241.411, 53.465 241.830, 54.107 241.434 C 54.867 240.964, 54.981 241.483, 54.471 243.092 C 53.476 246.227, 53.646 264.046, 54.681 265.083 C 55.132 265.534, 55.414 263.563, 55.309 260.702 C 55.203 257.841, 55.364 256.368, 55.667 257.429 C 55.969 258.490, 56.868 260.011, 57.665 260.808 C 58.463 261.606, 58.878 262.875, 58.589 263.629 C 58.300 264.383, 58.499 265, 59.031 265 C 59.564 265, 60.014 264.438, 60.032 263.750 C 60.053 262.900, 60.453 262.992, 61.282 264.039 C 64.538 268.155, 78.593 269.269, 85.137 265.930 C 87.368 264.792, 89.007 263.674, 88.779 263.445 C 88.550 263.217, 86.612 263.923, 84.470 265.015 C 79.465 267.567, 70.933 267.607, 65.421 265.104 C 58.186 261.817, 54.394 254.661, 55.237 245.884 C 55.561 242.517, 55.286 240.652, 54.353 239.878 C 53.307 239.010, 53 239.136, 53 240.437 M 144.624 240.539 C 144.281 241.432, 144.029 242.689, 144.063 243.332 C 144.098 243.974, 144.558 243.422, 145.085 242.105 C 145.612 240.787, 145.864 239.531, 145.645 239.312 C 145.426 239.093, 144.966 239.645, 144.624 240.539 M 82.502 241.750 C 83.125 243.964, 82.990 244, 74.099 244 C 66.082 244, 65.135 243.812, 65.701 242.336 C 66.131 241.217, 65.957 240.909, 65.170 241.395 C 64.526 241.793, 64 242.766, 64 243.559 C 64 244.718, 65.960 245, 74 245 C 84.277 245, 85.375 244.508, 82.919 241 C 82.097 239.826, 82.006 239.989, 82.502 241.750 M 91.788 245.457 L 92.248 251 77.717 251 C 63.897 251, 63.212 251.093, 63.688 252.914 C 64.633 256.529, 68.694 259.264, 73.849 259.760 C 76.552 260.019, 79.532 259.802, 80.471 259.276 C 81.648 258.618, 80.392 258.469, 76.430 258.797 C 71.230 259.229, 70.746 259.104, 71.363 257.496 C 71.927 256.027, 71.792 255.928, 70.590 256.925 C 69.421 257.896, 68.726 257.726, 67.067 256.067 C 63.236 252.236, 64.300 251.876, 78.491 252.196 C 89.020 252.433, 92.094 252.208, 92.491 251.168 C 93.283 249.097, 93.061 242.645, 92.149 241.207 C 91.693 240.487, 91.532 242.375, 91.788 245.457 M 123.543 240.931 C 123.226 241.443, 123.350 242.098, 123.817 242.387 C 124.284 242.676, 124.667 242.257, 124.667 241.456 C 124.667 239.770, 124.351 239.623, 123.543 240.931 M 181.286 246.500 C 181.294 249.250, 181.488 250.256, 181.718 248.736 C 181.947 247.216, 181.941 244.966, 181.704 243.736 C 181.467 242.506, 181.279 243.750, 181.286 246.500 M 108.218 247.250 C 104.568 252.640, 103.779 254, 104.299 254 C 104.529 254, 106.360 251.525, 108.369 248.500 C 110.377 245.475, 111.812 243, 111.558 243 C 111.304 243, 109.801 244.912, 108.218 247.250 M 152.998 244.250 C 152.999 244.662, 157.838 244.924, 163.750 244.832 C 174.670 244.661, 173.368 244.268, 160.248 243.773 C 156.259 243.623, 152.997 243.838, 152.998 244.250 M 125.500 245 C 125.840 245.550, 126.316 246, 126.559 246 C 126.802 246, 127 245.550, 127 245 C 127 244.450, 126.523 244, 125.941 244 C 125.359 244, 125.160 244.450, 125.500 245 M 143.232 248 C 143.232 249.925, 143.438 250.713, 143.689 249.750 C 143.941 248.787, 143.941 247.213, 143.689 246.250 C 143.438 245.287, 143.232 246.075, 143.232 248 M 129 250 C 130.175 251.650, 131.361 253, 131.636 253 C 131.911 253, 131.175 251.650, 130 250 C 128.825 248.350, 127.639 247, 127.364 247 C 127.089 247, 127.825 248.350, 129 250 M 25.742 254 C 26.023 257.025, 26.229 261.075, 26.200 263 L 26.148 266.500 27.406 263.500 C 28.155 261.715, 28.487 258.070, 28.226 254.500 C 27.694 247.214, 27.054 246.090, 26.850 252.083 L 26.700 256.500 25.966 252.500 C 25.410 249.470, 25.356 249.834, 25.742 254 M 116.022 252.192 C 113.859 255.452, 113.858 255.464, 115.976 253.062 L 118.125 250.624 120.645 253.562 L 123.165 256.500 120.906 253 C 119.664 251.075, 118.551 249.362, 118.433 249.192 C 118.315 249.023, 117.230 250.373, 116.022 252.192 M 153 252.441 C 153 253.234, 153.445 254.157, 153.989 254.493 C 154.551 254.840, 154.726 254.449, 154.394 253.584 C 153.897 252.288, 155.552 252.018, 165.656 251.748 L 177.500 251.430 165.250 251.215 C 155.151 251.038, 153 251.253, 153 252.441 M 82.510 257.016 C 82.856 257.575, 83.590 257.753, 84.143 257.412 C 84.696 257.070, 86.240 257.816, 87.574 259.070 C 88.908 260.323, 90 260.820, 90 260.174 C 90 259.528, 89.523 259, 88.941 259 C 88.359 259, 88.203 258.480, 88.595 257.845 C 89.021 257.156, 88.871 256.961, 88.224 257.362 C 87.627 257.731, 86.856 257.575, 86.510 257.016 C 86.165 256.457, 84.982 256, 83.882 256 C 82.782 256, 82.165 256.457, 82.510 257.016 M 109.960 260.715 C 108.210 263.308, 107.480 264.847, 108.337 264.135 C 109.906 262.833, 114.274 256, 113.537 256 C 113.320 256, 111.710 258.122, 109.960 260.715 M 155 256.430 C 155 256.705, 155.900 257.411, 157 258 C 158.100 258.589, 159 258.845, 159 258.570 C 159 258.295, 158.100 257.589, 157 257 C 155.900 256.411, 155 256.155, 155 256.430 M 175.500 258 C 176.495 259.100, 177.535 260, 177.810 260 C 178.085 260, 177.495 259.100, 176.500 258 C 175.505 256.900, 174.465 256, 174.190 256 C 173.915 256, 174.505 256.900, 175.500 258 M 135.440 259.250 C 137.573 262.528, 137.571 262.527, 137.571 260.048 C 137.571 258.974, 137.372 258.295, 137.128 258.539 C 136.884 258.783, 136.002 258.424, 135.167 257.741 C 134.069 256.843, 134.145 257.259, 135.440 259.250 M 145.756 258.664 C 146.447 258.943, 146.715 259.652, 146.352 260.240 C 145.958 260.877, 146.164 261.017, 146.862 260.585 C 148.239 259.735, 147.412 257.965, 145.691 258.079 C 144.839 258.135, 144.857 258.302, 145.756 258.664 M 249.768 258.725 C 251.565 258.947, 254.265 258.943, 255.768 258.715 C 257.271 258.486, 255.800 258.304, 252.500 258.310 C 249.200 258.315, 247.971 258.502, 249.768 258.725 M 162.264 259.718 C 163.784 259.947, 166.034 259.941, 167.264 259.704 C 168.494 259.467, 167.250 259.279, 164.500 259.286 C 161.750 259.294, 160.744 259.488, 162.264 259.718 M 206.252 262.500 C 206.263 264.700, 206.468 265.482, 206.707 264.238 C 206.946 262.994, 206.937 261.194, 206.687 260.238 C 206.437 259.282, 206.241 260.300, 206.252 262.500 M 282.813 259.683 C 283.534 259.972, 284.397 259.936, 284.729 259.604 C 285.061 259.272, 284.471 259.036, 283.417 259.079 C 282.252 259.127, 282.015 259.364, 282.813 259.683 M 124 260.393 C 124 260.609, 124.698 261.054, 125.552 261.382 C 126.442 261.723, 126.843 261.555, 126.493 260.989 C 125.906 260.038, 124 259.583, 124 260.393 M 127 263.378 C 127 263.585, 127.787 264.373, 128.750 265.128 C 130.336 266.371, 130.371 266.336, 129.128 264.750 C 127.821 263.084, 127 262.555, 127 263.378 M 151.364 264.506 C 155.011 266.408, 155.937 266.420, 153.441 264.532 C 152.374 263.724, 150.825 263.052, 150 263.038 C 149.175 263.024, 149.789 263.685, 151.364 264.506 M 100 267.861 C 100 268.335, 101.125 268.508, 102.500 268.245 C 103.875 267.982, 105 267.594, 105 267.383 C 105 267.173, 103.875 267, 102.500 267 C 101.125 267, 100 267.388, 100 267.861 M 161.250 267.716 C 162.762 267.945, 165.238 267.945, 166.750 267.716 C 168.262 267.487, 167.025 267.300, 164 267.300 C 160.975 267.300, 159.738 267.487, 161.250 267.716 M 197.762 267.707 C 199.006 267.946, 200.806 267.937, 201.762 267.687 C 202.718 267.437, 201.700 267.241, 199.500 267.252 C 197.300 267.263, 196.518 267.468, 197.762 267.707 M 281.250 267.689 C 282.212 267.941, 283.788 267.941, 284.750 267.689 C 285.712 267.438, 284.925 267.232, 283 267.232 C 281.075 267.232, 280.288 267.438, 281.250 267.689 M 17 269 C 17 269.550, 18.012 269.993, 19.250 269.985 C 21.069 269.972, 21.213 269.784, 20 269 C 18.061 267.747, 17 267.747, 17 269 M 54.081 269.849 C 52.448 272.901, 52.786 273.751, 54.602 271.158 C 55.483 269.900, 55.970 268.636, 55.683 268.350 C 55.396 268.063, 54.676 268.738, 54.081 269.849 M 59 269 C 57.718 269.828, 57.754 269.972, 59.250 269.985 C 60.212 269.993, 61 269.550, 61 269 C 61 267.780, 60.887 267.780, 59 269 M 42.490 270.016 C 42.144 270.575, 41.330 270.728, 40.681 270.356 C 40.031 269.984, 39.851 270.065, 40.279 270.535 C 41.596 271.983, 44 271.903, 44 270.412 C 44 268.753, 43.372 268.589, 42.490 270.016 M 21.500 271 C 21.160 271.550, 21.359 272, 21.941 272 C 22.523 272, 23 271.550, 23 271 C 23 270.450, 22.802 270, 22.559 270 C 22.316 270, 21.840 270.450, 21.500 271 M 48.500 271 C 48.160 271.550, 48.359 272, 48.941 272 C 49.523 272, 50 271.550, 50 271 C 50 270.450, 49.802 270, 49.559 270 C 49.316 270, 48.840 270.450, 48.500 271 M 71 271 C 71 271.550, 71.477 272, 72.059 272 C 72.641 272, 72.840 271.550, 72.500 271 C 72.160 270.450, 71.684 270, 71.441 270 C 71.198 270, 71 270.450, 71 271 M 67.538 272.939 C 67.219 273.455, 67.755 274.354, 68.729 274.938 C 70.401 275.939, 70.389 276.085, 68.500 277.544 C 67.106 278.621, 66.500 280.271, 66.500 282.992 C 66.500 285.139, 66.848 286.548, 67.273 286.124 C 68.481 284.920, 68.993 281, 67.943 281 C 67.424 281, 67 280.502, 67 279.893 C 67 279.257, 67.732 279.067, 68.720 279.446 C 69.665 279.809, 70.137 279.803, 69.767 279.434 C 69.398 279.064, 69.791 278.066, 70.641 277.216 C 72.035 275.822, 71.979 275.559, 70.062 274.533 C 68.893 273.908, 68.251 273.082, 68.635 272.698 C 69.019 272.314, 69.060 272, 68.726 272 C 68.391 272, 67.857 272.422, 67.538 272.939 M 74.405 274.105 C 73.357 275.263, 72.657 276.500, 72.849 276.855 C 75.107 281.033, 75.155 281.287, 73.853 282.112 C 72.908 282.711, 72.866 282.974, 73.715 282.985 C 75.408 283.006, 77.298 279.302, 76.003 278.502 C 75.451 278.161, 75 277.432, 75 276.882 C 75 276.332, 75.520 276.203, 76.155 276.595 C 76.837 277.017, 77.039 276.872, 76.648 276.240 C 76.285 275.652, 76.553 274.943, 77.244 274.664 C 78.217 274.272, 78.206 274.140, 77.191 274.079 C 76.471 274.036, 76.160 273.550, 76.500 273 C 77.557 271.290, 76.400 271.900, 74.405 274.105 M 48.705 274.618 C 47.818 277.868, 48.014 284.109, 48.985 283.509 C 49.495 283.194, 49.657 282.270, 49.345 281.457 C 48.925 280.363, 49.263 280.146, 50.639 280.623 C 52.311 281.204, 52.297 281.110, 50.500 279.702 C 48.976 278.508, 48.777 277.854, 49.663 276.954 C 50.302 276.305, 51.363 276.106, 52.020 276.512 C 52.920 277.069, 52.880 277.461, 51.857 278.110 C 50.858 278.742, 50.830 278.973, 51.750 278.985 C 53.470 279.006, 53.322 281.488, 51.511 282.991 C 50.692 283.671, 50.300 284.676, 50.639 285.225 C 50.979 285.774, 50.642 286.603, 49.891 287.068 C 48.920 287.668, 49.171 287.863, 50.763 287.743 C 51.993 287.650, 53 287.194, 53 286.728 C 53 286.263, 53.445 286.157, 53.989 286.493 C 54.570 286.852, 54.714 286.417, 54.337 285.436 C 53.787 284.002, 54 283.929, 55.848 284.919 C 57.032 285.552, 58 286.499, 58 287.024 C 58 287.548, 59.093 287.887, 60.428 287.777 C 61.763 287.666, 62.668 287.272, 62.439 286.901 C 61.956 286.120, 64.472 283.805, 65.110 284.443 C 65.344 284.678, 65.528 283.099, 65.518 280.936 C 65.508 278.773, 65.162 277.002, 64.750 277.001 C 64.338 277.001, 64 278.125, 64 279.500 C 64 282.115, 62.530 282.901, 61.662 280.750 C 61.259 279.750, 61.142 279.750, 61.079 280.750 C 60.921 283.257, 58.998 281.921, 58.921 279.250 C 58.878 277.738, 58.614 277.065, 58.336 277.756 C 58.057 278.447, 57.493 278.804, 57.081 278.550 C 56.670 278.296, 56.333 278.723, 56.333 279.500 C 56.333 280.277, 56.657 280.712, 57.053 280.467 C 57.449 280.223, 58.007 280.917, 58.292 282.010 C 58.916 284.396, 57.939 285.206, 55.952 283.949 C 54.696 283.154, 54.694 283.029, 55.941 283.015 C 57.034 283.004, 56.957 282.689, 55.621 281.712 C 54.652 281.003, 53.944 279.991, 54.048 279.462 C 54.152 278.933, 54.127 278.163, 53.993 277.750 C 53.860 277.337, 53.673 276.438, 53.580 275.750 C 53.486 275.063, 52.796 274.636, 52.046 274.803 C 51.297 274.969, 50.354 274.572, 49.951 273.921 C 49.452 273.113, 49.055 273.335, 48.705 274.618 M 95.500 274 C 95.160 274.550, 95.359 275, 95.941 275 C 96.523 275, 97 274.550, 97 274 C 97 273.450, 96.802 273, 96.559 273 C 96.316 273, 95.840 273.450, 95.500 274 M 82 275 C 81.099 275.582, 80.975 275.975, 81.691 275.985 C 82.346 275.993, 83.160 275.550, 83.500 275 C 84.267 273.758, 83.921 273.758, 82 275 M 59.625 275.804 C 60.094 276.187, 60.757 276.875, 61.099 277.334 C 61.442 277.792, 61.960 277.547, 62.251 276.788 C 62.584 275.921, 62.037 275.353, 60.777 275.258 C 59.675 275.175, 59.157 275.421, 59.625 275.804 M 88.568 277.416 C 89.064 279.392, 88.839 280, 87.608 280 C 86.724 280, 86.053 279.663, 86.118 279.250 C 86.399 277.474, 85.934 276, 85.094 276 C 83.597 276, 85.151 280.123, 86.889 280.762 C 87.775 281.088, 88.831 281.837, 89.235 282.427 C 89.639 283.017, 89.976 281.839, 89.985 279.809 C 89.993 277.779, 89.532 275.829, 88.960 275.475 C 88.285 275.058, 88.148 275.741, 88.568 277.416 M 99.100 276.705 C 99.829 277.917, 100.640 278.694, 100.903 278.431 C 101.166 278.168, 100.570 277.176, 99.579 276.226 C 97.857 274.577, 97.835 274.598, 99.100 276.705 M 108.655 276.829 C 106.600 279.100, 106.523 281.603, 108.485 282.356 C 109.733 282.835, 109.773 282.602, 108.735 280.898 C 107.672 279.152, 107.829 278.600, 109.861 276.935 C 111.159 275.871, 111.791 275, 111.266 275 C 110.740 275, 109.565 275.823, 108.655 276.829 M 78.747 276.660 C 78.332 277.298, 78.255 278.500, 78.574 279.332 C 78.893 280.163, 78.645 281.891, 78.022 283.172 C 77.013 285.247, 77.042 285.311, 78.294 283.766 C 79.907 281.772, 81.112 282.411, 80.337 284.848 C 79.895 286.236, 79.977 286.266, 80.848 285.034 C 81.433 284.206, 81.513 283.116, 81.031 282.534 C 80.561 281.965, 80.025 280.150, 79.838 278.500 C 79.637 276.711, 79.196 275.968, 78.747 276.660 M 103.070 278.750 C 102.996 282.185, 102.173 282.773, 100.200 280.800 C 99.397 279.997, 99 279.962, 99 280.693 C 99 281.605, 101.145 283, 102.547 283 C 103.678 283, 104.638 279.224, 103.945 277.500 C 103.286 275.862, 103.128 276.088, 103.070 278.750 M 113.063 276.750 C 113.029 277.438, 112.325 278, 111.500 278 C 109.724 278, 109.514 279.582, 111.155 280.595 C 111.870 281.038, 112.038 280.870, 111.595 280.155 C 111.173 279.470, 111.517 279, 112.441 279 C 114.303 279, 114.450 280.150, 112.800 281.800 C 111.997 282.603, 111.962 283, 112.693 283 C 114.352 283, 115.046 280.276, 114.032 277.751 C 113.534 276.513, 113.098 276.063, 113.063 276.750 M 126.374 277.250 C 126.701 278.264, 126.425 279.006, 125.719 279.015 C 124.867 279.026, 124.832 279.252, 125.600 279.765 C 126.205 280.169, 126.957 281.175, 127.271 282 C 127.624 282.927, 127.866 282.544, 127.906 281 C 127.941 279.625, 127.484 277.825, 126.890 277 C 125.980 275.734, 125.899 275.773, 126.374 277.250 M 174.459 277.067 C 174.096 277.653, 174.014 278.348, 174.276 278.610 C 174.538 278.872, 175.019 278.392, 175.345 277.543 C 176.021 275.781, 175.445 275.471, 174.459 277.067 M 92.195 279.500 C 92.215 281.150, 92.439 281.704, 92.693 280.731 C 92.947 279.758, 92.930 278.408, 92.656 277.731 C 92.382 277.054, 92.175 277.850, 92.195 279.500 M 96 278.059 C 96 278.641, 95.438 278.780, 94.750 278.367 C 93.753 277.768, 93.751 277.926, 94.741 279.150 C 95.424 279.994, 95.762 280.980, 95.491 281.342 C 95.221 281.704, 95.312 281.763, 95.692 281.474 C 96.516 280.849, 97.205 277, 96.494 277 C 96.222 277, 96 277.477, 96 278.059 M 146.195 279.500 C 146.215 281.150, 146.439 281.704, 146.693 280.731 C 146.947 279.758, 146.930 278.408, 146.656 277.731 C 146.382 277.054, 146.175 277.850, 146.195 279.500 M 167.750 277.689 C 165.704 278.224, 165.472 279.578, 167.250 280.601 C 167.938 280.997, 168.169 280.955, 167.766 280.509 C 167.362 280.063, 167.812 279.105, 168.766 278.381 C 170.592 276.994, 170.542 276.960, 167.750 277.689 M 189.750 277.689 C 187.878 278.179, 187.289 281, 189.059 281 C 189.641 281, 189.796 280.479, 189.403 279.842 C 188.916 279.055, 189.353 278.859, 190.769 279.229 C 192.266 279.621, 192.701 279.384, 192.318 278.387 C 192.025 277.624, 191.722 277.052, 191.643 277.116 C 191.564 277.180, 190.713 277.438, 189.750 277.689 M 224.195 279.500 C 224.215 281.150, 224.439 281.704, 224.693 280.731 C 224.947 279.758, 224.930 278.408, 224.656 277.731 C 224.382 277.054, 224.175 277.850, 224.195 279.500 M 272.158 279 C 272.158 280.375, 272.385 280.938, 272.662 280.250 C 272.940 279.563, 272.940 278.438, 272.662 277.750 C 272.385 277.063, 272.158 277.625, 272.158 279 M 130.158 280 C 130.158 281.375, 130.385 281.938, 130.662 281.250 C 130.940 280.563, 130.940 279.438, 130.662 278.750 C 130.385 278.063, 130.158 278.625, 130.158 280 M 163.079 279.643 C 163.036 280.822, 163.739 282.069, 164.641 282.416 C 165.869 282.887, 166.029 282.725, 165.276 281.773 C 164.722 281.073, 164.019 279.825, 163.713 279 C 163.334 277.976, 163.133 278.180, 163.079 279.643 M 176.543 278.931 C 175.860 280.036, 177.437 281.230, 178.361 280.306 C 179.311 279.355, 179.134 278, 178.059 278 C 177.541 278, 176.859 278.419, 176.543 278.931 M 207.158 280 C 207.158 281.375, 207.385 281.938, 207.662 281.250 C 207.940 280.563, 207.940 279.438, 207.662 278.750 C 207.385 278.063, 207.158 278.625, 207.158 280 M 218.158 280 C 218.158 281.375, 218.385 281.938, 218.662 281.250 C 218.940 280.563, 218.940 279.438, 218.662 278.750 C 218.385 278.063, 218.158 278.625, 218.158 280 M 263.029 279.961 C 262.220 280.473, 261.818 281.152, 262.136 281.470 C 262.455 281.788, 263.284 281.362, 263.980 280.524 C 265.423 278.786, 265.146 278.622, 263.029 279.961 M 135.606 282.152 C 136.648 283.611, 137.700 284.611, 137.944 284.374 C 138.189 284.138, 137.337 282.944, 136.050 281.722 L 133.712 279.500 135.606 282.152 M 138 281 C 138 281.550, 138.450 282, 139 282 C 139.550 282, 140 281.550, 140 281 C 140 280.450, 139.550 280, 139 280 C 138.450 280, 138 280.450, 138 281 M 149.756 280.664 C 150.447 280.943, 150.715 281.652, 150.352 282.240 C 149.958 282.877, 150.164 283.017, 150.862 282.585 C 152.239 281.735, 151.412 279.965, 149.691 280.079 C 148.839 280.135, 148.857 280.302, 149.756 280.664 M 185 280.378 C 185 280.585, 185.787 281.373, 186.750 282.128 C 188.336 283.371, 188.371 283.336, 187.128 281.750 C 185.821 280.084, 185 279.555, 185 280.378 M 245 280.393 C 245 280.609, 245.698 281.054, 246.552 281.382 C 247.442 281.723, 247.843 281.555, 247.493 280.989 C 246.906 280.038, 245 279.583, 245 280.393 M 52.583 283.643 C 51.665 286.037, 52.381 286.221, 53.796 283.955 C 54.468 282.880, 54.611 282, 54.115 282 C 53.620 282, 52.930 282.739, 52.583 283.643 M 59.201 284.255 C 58.269 285.380, 58.218 286.016, 59.018 286.511 C 60.498 287.426, 61.255 286.558, 60.838 284.423 C 60.534 282.860, 60.371 282.844, 59.201 284.255 M 82.584 284.641 C 82.057 286.014, 82.204 286.076, 83.477 285.019 C 85.212 283.579, 85.393 283, 84.107 283 C 83.616 283, 82.931 283.739, 82.584 284.641 M 74.564 285.293 C 74.940 286.279, 75.499 286.834, 75.807 286.526 C 76.115 286.219, 75.808 285.412, 75.124 284.733 C 74.136 283.753, 74.022 283.868, 74.564 285.293 M 77.813 287.683 C 78.534 287.972, 79.397 287.936, 79.729 287.604 C 80.061 287.272, 79.471 287.036, 78.417 287.079 C 77.252 287.127, 77.015 287.364, 77.813 287.683 M 84.201 323.321 C 82.509 328, 82.509 328, 87.500 328 C 89.975 328, 92 327.550, 92 327 C 92 326.450, 90.677 326, 89.059 326 C 85.505 326, 84.076 324.149, 86.347 322.488 C 88.331 321.038, 88.478 320, 86.701 320 C 85.986 320, 84.861 321.494, 84.201 323.321 M 72.188 326.063 C 72.428 326.784, 73.216 327.572, 73.938 327.813 C 74.688 328.063, 75.063 327.688, 74.813 326.938 C 74.572 326.216, 73.784 325.428, 73.063 325.188 C 72.313 324.938, 71.938 325.313, 72.188 326.063" stroke="none" fill="#000000" fill-rule="evenodd"/>
</svg>